<svg width="140" height="54" viewBox="0 0 140 54" fill="none" xmlns="http://www.w3.org/2000/svg">
<path fill-rule="evenodd" clip-rule="evenodd" d="M111.699 21.1662C112.332 21.6876 112.993 22.0822 113.667 22.364C114.356 22.6459 115.144 22.7868 116.058 22.7868C117.787 22.7868 119.066 22.1526 119.91 20.8984C120.739 19.6443 121.161 17.7277 121.161 15.1489C121.161 13.2183 120.978 11.6823 120.627 10.5126C120.275 9.35709 119.713 8.49748 118.94 7.96198C118.18 7.42649 117.14 7.15874 115.861 7.15874C115.228 7.15874 114.539 7.28557 113.794 7.52513C113.049 7.76469 112.346 8.06063 111.699 8.42702V0.958252H107.566V22.6177H111.024L111.699 21.1662ZM117.042 14.9516C117.042 16.5722 116.817 17.6996 116.381 18.3619C115.945 19.0242 115.326 19.3483 114.525 19.3483C113.527 19.3483 112.585 19.1088 111.699 18.6155V11.3722C112.669 10.8086 113.611 10.5267 114.525 10.5267C115.017 10.5267 115.453 10.6254 115.819 10.8368C116.184 11.0481 116.479 11.485 116.704 12.1332C116.929 12.7815 117.042 13.7256 117.042 14.9516ZM63.4907 1.6065H67.7647L71.0967 16.4313L74.977 1.6065H78.7729L82.6251 16.4313L85.943 1.6065H90.217L85.2823 22.6177H81.0645L76.8749 7.79289L72.6572 22.6177H68.4395L63.4907 1.6065ZM94.4066 22.0822C93.4365 21.6313 92.7335 20.8421 92.2977 19.7288C91.8619 18.6156 91.6369 17.0373 91.6369 15.0221C91.6369 12.9365 91.8478 11.3441 92.2555 10.2167C92.6632 9.08937 93.3381 8.30021 94.28 7.84927C95.222 7.39833 96.5435 7.17285 98.2587 7.17285C99.7912 7.17285 100.986 7.32787 101.858 7.6238C102.73 7.93382 103.362 8.45523 103.77 9.2162C104.164 9.97716 104.374 11.0482 104.374 12.4292C104.374 13.9088 103.967 14.9516 103.137 15.5858C102.308 16.2058 101.099 16.5159 99.524 16.5159H95.7562C95.7984 17.3332 95.9109 17.9532 96.1218 18.4042C96.3326 18.841 96.6841 19.1652 97.2043 19.3624C97.7245 19.5597 98.4837 19.6584 99.4959 19.6584H103.882V22.1245C102.898 22.3359 101.998 22.4909 101.197 22.6036C100.396 22.7163 99.4678 22.7727 98.3993 22.7727C96.7122 22.7586 95.3766 22.5332 94.4066 22.0822ZM99.1023 13.9793C99.6787 13.9793 100.086 13.8666 100.339 13.627C100.593 13.3874 100.719 12.9929 100.719 12.4151C100.719 11.5837 100.536 11.0059 100.157 10.6677C99.7912 10.3295 99.1585 10.1745 98.2587 10.1745C97.612 10.1745 97.1059 10.2872 96.7404 10.4986C96.3748 10.7099 96.1077 11.1045 95.939 11.6541C95.7703 12.2037 95.6859 12.9788 95.6859 13.9793H99.1023Z" fill="white"/>
<path d="M64.77 49.0966C63.8843 47.8987 63.4485 45.954 63.4485 43.2484C63.4485 41.3178 63.6172 39.7817 63.9687 38.6262C64.3202 37.4706 64.8966 36.6251 65.712 36.0755C66.5274 35.5259 67.6521 35.2582 69.0862 35.2582C70.3093 35.2582 71.5887 35.4978 72.9102 35.9628V29.0718H77.0717V50.7312H73.5851L72.9102 49.2798C72.39 49.7307 71.7574 50.1112 71.0123 50.4353C70.2671 50.7453 69.5361 50.9003 68.805 50.9003C66.9914 50.8862 65.6558 50.2944 64.77 49.0966ZM72.9102 46.6586V38.9926C72.4182 38.8094 71.9964 38.6544 71.6168 38.5557C71.2372 38.4571 70.8436 38.4007 70.4218 38.4007C69.7048 38.4007 69.1283 38.5275 68.7347 38.7812C68.327 39.0349 68.0458 39.4999 67.849 40.1763C67.6521 40.8527 67.5678 41.811 67.5678 43.0511C67.5678 44.2489 67.6521 45.1508 67.8349 45.7849C68.0177 46.4191 68.2848 46.8559 68.6785 47.1237C69.0581 47.3773 69.5923 47.5042 70.2531 47.5042C71.1388 47.5042 72.0245 47.2223 72.9102 46.6586Z" fill="white"/>
<path d="M80.3054 49.8576C79.6025 49.1671 79.251 48.2229 79.251 47.0392V45.6722C79.251 44.4603 79.6587 43.5021 80.4882 42.7834C81.3177 42.0647 82.5549 41.7124 84.1857 41.7124H88.0098V40.6696C88.0098 40.1623 87.9254 39.7536 87.7567 39.4577C87.588 39.1617 87.2646 38.9503 86.8007 38.8094C86.3367 38.6685 85.6478 38.598 84.734 38.598H80.2351V36.1601C82.0768 35.5964 84.0732 35.3146 86.2383 35.3146C88.2066 35.3146 89.6828 35.6951 90.6669 36.4561C91.6511 37.217 92.1291 38.5276 92.1291 40.4018V50.7594H88.8674L88.1925 49.1389C87.9816 49.3502 87.6302 49.5898 87.11 49.8716C86.5898 50.1535 85.9712 50.4071 85.2542 50.6044C84.5372 50.8158 83.8061 50.9145 83.061 50.9145C81.9363 50.8863 81.0084 50.5481 80.3054 49.8576ZM86.8288 47.6733C87.4615 47.476 87.8551 47.3351 88.0238 47.2364V43.6853L85.5073 43.8544C84.0873 43.9671 83.3843 44.5871 83.3843 45.7286V46.3486C83.3843 47.4337 84.0029 47.9692 85.2261 47.9692C85.6619 47.9692 86.1961 47.8706 86.8288 47.6733Z" fill="white"/>
<path d="M95.3625 35.4696H98.7648L99.4959 37.0338C100.115 36.5265 100.846 36.0896 101.703 35.7373C102.561 35.385 103.404 35.2159 104.22 35.2159C105.921 35.2159 107.116 35.7092 107.819 36.6956C108.522 37.682 108.887 39.0067 108.887 40.6696V50.7172H104.754V41.205C104.754 40.4864 104.557 39.9368 104.178 39.5563C103.798 39.1758 103.264 38.9926 102.603 38.9926C101.577 38.9926 100.55 39.3731 99.4959 40.12V50.7031H95.3625V35.4696Z" fill="white"/>
<path d="M128.148 49.8576C127.445 49.1671 127.108 48.2229 127.108 47.0392V45.6722C127.108 44.4603 127.516 43.5021 128.345 42.7834C129.175 42.0647 130.412 41.7124 132.043 41.7124H135.867V40.6696C135.867 40.1623 135.782 39.7536 135.614 39.4577C135.445 39.1617 135.122 38.9503 134.672 38.8094C134.208 38.6685 133.519 38.598 132.605 38.598H128.106V36.1601C129.948 35.5964 131.944 35.3146 134.109 35.3146C136.078 35.3146 137.554 35.6951 138.538 36.4561C139.508 37.217 140 38.5276 140 40.4018V50.7594H136.738L136.064 49.1389C135.853 49.3502 135.501 49.5898 134.967 49.8716C134.447 50.1535 133.828 50.4071 133.111 50.6044C132.394 50.8158 131.663 50.9145 130.918 50.9145C129.779 50.8863 128.851 50.5481 128.148 49.8576ZM134.672 47.6733C135.304 47.476 135.698 47.3351 135.867 47.2364V43.6853L133.35 43.8544C131.93 43.9671 131.227 44.5871 131.227 45.7286V46.3486C131.227 47.4337 131.846 47.9692 133.069 47.9692C133.519 47.9692 134.039 47.8706 134.672 47.6733Z" fill="white"/>
<path d="M119.811 47.7156C118.883 47.7156 118.166 47.6028 117.66 47.3633C117.154 47.1237 116.788 46.6868 116.549 46.0245C116.324 45.3763 116.198 44.418 116.198 43.1497C116.198 41.8674 116.31 40.8809 116.549 40.2045C116.788 39.5281 117.154 39.049 117.66 38.7812C118.166 38.5135 118.855 38.3866 119.755 38.3866H123.691V35.9769C122.018 35.5119 120.275 35.2723 118.475 35.2723C117.041 35.2723 115.86 35.5119 114.933 35.9769C114.005 36.456 113.288 37.2593 112.81 38.4148C112.318 39.5704 112.079 41.1628 112.079 43.1779C112.079 46.0104 112.627 48.0115 113.724 49.167C114.722 50.2098 116.085 50.7735 117.801 50.8722L117.252 51.7459C117.758 51.8163 118.012 52.0136 118.012 52.3377C118.012 52.676 117.787 52.8591 117.337 52.9014L117.041 52.9437V53.9583H117.843C118.433 53.9583 118.869 53.8456 119.164 53.606C119.46 53.3665 119.614 53.0423 119.614 52.6337C119.614 52.2955 119.516 52.0418 119.319 51.8586C119.122 51.6754 118.855 51.5627 118.504 51.5345L118.911 50.8863C119.699 50.8581 120.5 50.7876 121.329 50.6749C122.356 50.5199 123.213 50.3367 123.93 50.1112V47.7297H119.811V47.7156Z" fill="white"/>
<path fill-rule="evenodd" clip-rule="evenodd" d="M0.0562278 0V9.20209C0.224936 9.11753 0.337409 9.06117 0.449881 9.01889C0.913828 8.80751 1.37621 8.58987 1.8386 8.37223C2.76337 7.93694 3.68815 7.50165 4.62542 7.11647C6.27033 6.45414 7.98553 5.97501 9.78509 5.98911C12.2735 6.01729 13.9466 7.4124 14.298 9.75168C14.4808 10.9354 14.284 12.105 14.0309 13.2606C13.8519 14.0699 13.6677 14.8793 13.4834 15.6892C12.9874 17.8689 12.4905 20.0526 12.0908 22.2513C11.5003 25.4925 11.2332 28.7618 11.5987 32.0593C11.7674 33.5672 12.0627 35.0468 12.8781 36.3574C13.581 37.4989 14.5933 38.1048 15.957 38.0766C16.899 38.0625 17.7003 37.6961 18.4173 37.1325C19.3874 36.3574 20.1888 35.4273 20.7793 34.3563C21.8943 32.3328 22.9702 30.2896 24.0477 28.2432C24.2609 27.8384 24.4741 27.4334 24.6877 27.0285C24.7301 26.9484 24.7724 26.8683 24.8148 26.7882C25.8677 24.7973 26.9142 22.8184 28.4414 21.1521C29.538 19.9543 30.8315 19.0806 32.5045 18.8692C34.0932 18.6719 35.3163 19.2497 35.9912 20.7012C36.3286 21.4199 36.5957 22.1949 36.6941 22.97C36.8319 24.0751 36.9117 25.1855 36.9916 26.2979C37.0421 27.0012 37.0927 27.7054 37.1581 28.4095C37.2565 29.5369 37.3689 30.6642 37.6079 31.7775C37.8469 32.9189 38.5358 33.1444 39.52 32.4962C39.8012 32.313 40.0402 32.0452 40.2229 31.7634C40.4619 31.4252 40.6588 31.0306 40.7993 30.636C41.0102 30.0583 41.2071 29.4735 41.4039 28.8886C41.6007 28.3038 41.7975 27.719 42.0084 27.1412C43.091 24.1255 44.3563 21.2226 46.2402 18.6156C47.4774 16.8963 48.9536 15.4167 50.9078 14.4866C51.0343 14.4302 51.1328 14.1484 51.1328 13.9793C51.1468 9.46984 51.1468 4.96039 51.1468 0.450945C51.1468 0.307958 51.1348 0.176962 51.122 0.0358363L51.1187 0H0.0562278ZM0.014059 51.2104H51.1187L51.1217 51.1679C51.1347 50.9868 51.1468 50.8177 51.1468 50.6608V15.6703V15.1066C50.9078 15.2194 50.7391 15.3039 50.5845 15.4026C49.1786 16.2481 48.096 17.4036 47.154 18.7283C45.5091 21.0535 44.3704 23.6464 43.4565 26.3239C43.1824 27.1201 42.9328 27.9268 42.6833 28.7336C42.4337 29.5403 42.1842 30.3471 41.91 31.1433C41.7273 31.6929 41.432 32.2284 41.1087 32.7216C40.5041 33.6094 39.6465 34.0745 38.564 34.1449C37.6783 34.2013 37.0597 33.8208 36.6379 33.0739C36.1599 32.2143 35.9912 31.2561 35.8787 30.2978C35.7635 29.316 35.6628 28.3313 35.5621 27.3463C35.4417 26.1682 35.3212 24.9897 35.1757 23.8155C35.1054 23.1532 34.9086 22.4908 34.6696 21.8849C34.2057 20.7152 33.573 20.4475 32.3499 20.7716C31.3236 21.0535 30.5503 21.7017 29.8755 22.4908C28.5539 24.041 27.6542 25.8447 26.7684 27.6626C26.4237 28.3659 26.0826 29.0705 25.7417 29.7748C24.9143 31.4836 24.0876 33.1913 23.2115 34.8777C22.3539 36.5265 21.2713 38.0202 19.7951 39.1899C17.3207 41.1628 13.9606 41.1346 11.6831 39.063C10.3756 37.8652 9.68668 36.2869 9.2368 34.61C8.57602 32.2143 8.47761 29.7623 8.53384 27.2962C8.64632 22.3922 9.53204 17.615 10.6146 12.8519C10.7833 12.105 10.8817 11.3159 10.8817 10.5408C10.8817 9.77984 10.6005 9.54027 9.84133 9.58255C9.19462 9.61073 8.5479 9.70938 7.90119 9.89258C5.56169 10.5358 3.43829 11.6886 1.31342 12.8423C1.20367 12.9019 1.09392 12.9615 0.984133 13.021C0.224945 13.4297 0 13.9088 0 14.7684C0.0337417 24.3735 0.0314923 33.9786 0.0292428 43.5838C0.0286805 45.985 0.0281181 48.3863 0.0281181 50.7876C0.0281181 50.8581 0.0246033 50.9285 0.0210885 50.999C0.0175738 51.0695 0.014059 51.1399 0.014059 51.2104Z" fill="white"/>
</svg>
