<svg width="36" height="36" viewBox="0 0 36 36" fill="none" xmlns="http://www.w3.org/2000/svg">
<path fill-rule="evenodd" clip-rule="evenodd" d="M0.038548 0V6.31C0.154234 6.25202 0.231358 6.21337 0.308482 6.18438C0.626618 6.03944 0.943683 5.89019 1.26075 5.74095C1.89488 5.44247 2.52901 5.14399 3.17171 4.87986C4.29964 4.4257 5.47578 4.09715 6.70977 4.10682C8.41613 4.12614 9.56335 5.08279 9.80436 6.68686C9.92969 7.49856 9.79472 8.3006 9.6212 9.09297C9.49844 9.64796 9.37216 10.2029 9.24578 10.7583C8.90567 12.2529 8.56493 13.7503 8.29081 15.258C7.88591 17.4805 7.70274 19.7224 7.95339 21.9835C8.06908 23.0175 8.27153 24.0321 8.83068 24.9308C9.3127 25.7135 10.0068 26.129 10.9419 26.1097C11.5879 26.1 12.1374 25.8488 12.629 25.4623C13.2942 24.9308 13.8437 24.293 14.2486 23.5586C15.0132 22.1711 15.7509 20.7701 16.4898 19.3669C16.636 19.0893 16.7822 18.8115 16.9287 18.5338C16.9578 18.4789 16.9868 18.424 17.0158 18.3691C17.7378 17.0038 18.4554 15.6469 19.5027 14.5043C20.2547 13.6829 21.1416 13.0838 22.2888 12.9389C23.3782 12.8036 24.2169 13.1998 24.6796 14.1951C24.911 14.6879 25.0942 15.2194 25.1617 15.7508C25.2562 16.5086 25.3109 17.27 25.3657 18.0329C25.4003 18.5151 25.435 18.998 25.4798 19.4808C25.5473 20.2539 25.6244 21.0269 25.7883 21.7903C25.9522 22.573 26.4246 22.7276 27.0994 22.2831C27.2922 22.1575 27.4561 21.9739 27.5814 21.7806C27.7453 21.5487 27.8803 21.2781 27.9767 21.0076C28.1213 20.6114 28.2563 20.2104 28.3912 19.8093C28.5262 19.4083 28.6612 19.0073 28.8058 18.6111C29.5481 16.5432 30.4157 14.5526 31.7076 12.765C32.5559 11.5861 33.5682 10.5714 34.9082 9.93366C34.995 9.89501 35.0625 9.70175 35.0625 9.58579C35.0721 6.4936 35.0721 3.40141 35.0721 0.309219C35.0721 0.21112 35.0639 0.121251 35.055 0.0244215L35.0528 0H0.038548ZM0.00964049 35.1157H35.0528L35.0549 35.0868C35.0638 34.9625 35.0721 34.8465 35.0721 34.7388V10.7454V10.3588C34.9082 10.4361 34.7925 10.4941 34.6865 10.5618C33.7224 11.1415 32.9801 11.9339 32.3342 12.8422C31.2063 14.4367 30.4254 16.2147 29.7988 18.0507C29.6108 18.5966 29.4396 19.1498 29.2685 19.703C29.0974 20.2563 28.9263 20.8095 28.7383 21.3554C28.613 21.7323 28.4105 22.0995 28.1888 22.4377C27.7743 23.0465 27.1862 23.3654 26.4439 23.4137C25.8365 23.4523 25.4123 23.1914 25.1231 22.6793C24.7953 22.0898 24.6797 21.4327 24.6025 20.7756C24.5235 20.1024 24.4545 19.4271 24.3854 18.7517C24.3029 17.9439 24.2203 17.1358 24.1205 16.3306C24.0723 15.8765 23.9373 15.4223 23.7734 15.0068C23.4553 14.2047 23.0215 14.0211 22.1828 14.2434C21.479 14.4367 20.9488 14.8812 20.486 15.4223C19.5798 16.4852 18.9628 17.7221 18.3555 18.9686C18.1191 19.4509 17.8852 19.934 17.6514 20.417C17.0841 21.5888 16.5172 22.7597 15.9164 23.9162C15.3284 25.0467 14.5861 26.071 13.5738 26.8731C11.8771 28.2259 9.57301 28.2066 8.01125 26.7861C7.11468 25.9647 6.6423 24.8825 6.3338 23.7326C5.8807 22.0898 5.81322 20.4085 5.85178 18.7174C5.9289 15.3547 6.53625 12.0789 7.27857 8.81273C7.39426 8.30059 7.46174 7.75946 7.46174 7.22799C7.46174 6.70618 7.26893 6.54191 6.74834 6.5709C6.30488 6.59022 5.86142 6.65786 5.41796 6.78348C3.81373 7.22453 2.35769 8.01507 0.900641 8.80615C0.825382 8.84701 0.75012 8.88788 0.674834 8.92869C0.154248 9.20892 0 9.53747 0 10.1269C0.0231372 16.7133 0.0215947 23.2997 0.0200522 29.886C0.0196666 31.5326 0.019281 33.1792 0.019281 34.8258C0.019281 34.8741 0.0168709 34.9224 0.0144607 34.9707C0.0120506 35.0191 0.00964049 35.0674 0.00964049 35.1157Z" fill="#2887DA"/>
</svg>
